<svg width="64" height="64" viewBox="0 0 64 64" fill="none" xmlns="http://www.w3.org/2000/svg">
  <rect width="64" height="64" rx="16" fill="#0C1D52"/>
  <path d="M18 42.5C22.3333 46.8333 28.6 49.5 36 49.5C46.4667 49.5 53.3333 44.4333 53.3333 36.9C53.3333 30.0333 48.3333 26.5 38.4 24.1667L33 22.9C27.4667 21.6333 24.6667 20.0333 24.6667 16.9667C24.6667 13.5 28.2 11.1 33.5333 11.1C38.6 11.1 42.7333 12.7 46.6667 16.1L51.3333 10.4333C46.5333 6.23333 40.4 4.03333 33.3333 4.03333C23.6 4.03333 16.6667 9.43333 16.6667 17.4333C16.6667 24.2333 21.3333 28.1 30.6 30.2333L36 31.5C42.6667 33.0333 45.3333 34.6333 45.3333 37.9C45.3333 41.5 41.8667 43.3 36.2667 43.3C30.6 43.3 25.7333 41.2333 21.4667 37.3L18 42.5Z" fill="#E8DCC4"/>
</svg>
