<svg width="452" height="96" viewBox="0 0 452 96" fill="none" xmlns="http://www.w3.org/2000/svg">
  <rect width="96" height="96" rx="24" fill="#0C1D52"/>
  <path d="M28 62.5C34.5 69 43.9 73 55 73C70.7 73 81 65.4 81 54.1C81 43.8 73.5 38.5 58.6 35L50.5 33.1C42.2 31.2 38 28.8 38 24.2C38 19 43.3 15.4 51.3 15.4C58.9 15.4 65.1 17.8 71 22.9L78 14.4C70.8 8.1 61.6 4.8 51 4.8C36.4 4.8 26 12.9 26 24.9C26 35.1 33 40.9 46.9 44.1L55 46C65 48.3 69 50.7 69 55.6C69 61 63.8 63.7 55.4 63.7C46.9 63.7 39.6 60.6 33.2 54.7L28 62.5Z" fill="#E8DCC4"/>
  <path d="M123.7 68V27.3H148.4C158.6 27.3 165.7 32.8 165.7 41.6C165.7 48.5 161.5 53.2 154.8 54.9V55.4C163.8 56.7 169.7 62.7 169.7 71.5C169.7 81.7 161.4 88 149.1 88H112V68H123.7ZM123.7 51.2H146C151.5 51.2 155 48.2 155 43.5C155 39.1 151.8 36.2 146.3 36.2H123.7V51.2ZM123.7 79.1H147.8C154.3 79.1 158.3 75.8 158.3 70.2C158.3 64.6 154 61.1 147.1 61.1H123.7V79.1Z" fill="#0C1D52"/>
  <path d="M184.8 88V27.3H195.7V88H184.8Z" fill="#0C1D52"/>
  <path d="M236.1 88.8C221.7 88.8 211.7 79 211.7 63.9C211.7 49 221.6 38.6 235.6 38.6C249.3 38.6 258.7 48.1 258.7 62.2V66.2H222.4C222.8 75.1 228.2 80.7 236.3 80.7C242.7 80.7 247.1 78 249.1 73.3H259.5C256.8 82.6 247.9 88.8 236.1 88.8ZM222.9 58.9H248.1C247.7 51 242.6 46.2 235.6 46.2C228.4 46.2 223.5 51.4 222.9 58.9Z" fill="#0C1D52"/>
  <path d="M272.8 88V39.5H283.4V47.2H283.8C286.4 41.8 291.8 38.6 299 38.6C306 38.6 311.2 41.9 313.5 47.8H313.9C316.8 42.1 323 38.6 330.7 38.6C341.2 38.6 348.1 45.3 348.1 56.8V88H337.3V59C337.3 50.7 333.5 46.9 326.6 46.9C319.3 46.9 314.8 51.8 314.8 58.6V88H304.1V58.2C304.1 51.3 300.2 46.9 293.5 46.9C286.6 46.9 283.6 51.6 283.6 58.9V88H272.8Z" fill="#0C1D52"/>
  <path d="M383.3 88.8C368.9 88.8 358.9 79 358.9 63.9C358.9 49 368.8 38.6 382.8 38.6C396.5 38.6 405.9 48.1 405.9 62.2V66.2H369.6C370 75.1 375.4 80.7 383.5 80.7C389.9 80.7 394.3 78 396.3 73.3H406.7C404 82.6 395.1 88.8 383.3 88.8ZM370.1 58.9H395.3C394.9 51 389.8 46.2 382.8 46.2C375.6 46.2 370.7 51.4 370.1 58.9Z" fill="#0C1D52"/>
  <path d="M419 88V39.5H429.6V47.8H430C432.6 42 437.7 38.6 444.8 38.6V49.1C444 49 443.2 48.9 442 48.9C434.1 48.9 429.8 53.2 429.8 60.9V88H419Z" fill="#0C1D52"/>
</svg>
